<?xml version="1.0" standalone="no"?>
<!DOCTYPE svg PUBLIC "-//W3C//DTD SVG 20010904//EN"
 "http://www.w3.org/TR/2001/REC-SVG-20010904/DTD/svg10.dtd">
<svg version="1.0" xmlns="http://www.w3.org/2000/svg"
 width="600.000000pt" height="600.000000pt" viewBox="0 0 600.000000 600.000000"
 preserveAspectRatio="xMidYMid meet">
<metadata>
Created by potrace 1.11, written by Peter Selinger 2001-2013
</metadata>
<g transform="translate(0.000000,600.000000) scale(0.100000,-0.100000)"
fill="#000000" stroke="none">
<path d="M2838 5284 c-2 -1 -39 -5 -83 -8 -133 -11 -274 -34 -395 -66 -167
-43 -444 -164 -535 -232 -5 -4 -48 -36 -95 -69 -324 -235 -582 -646 -689
-1099 -19 -82 -23 -102 -37 -180 -3 -19 -7 -42 -9 -50 -1 -8 -6 -49 -11 -90
-4 -41 -9 -78 -10 -82 -1 -5 -3 -25 -4 -45 -1 -21 -4 -30 -7 -20 -2 9 -10 17
-16 18 -35 3 -145 0 -167 -5 -48 -11 -114 -61 -145 -110 l-30 -49 0 -376 c0
-366 1 -377 22 -416 49 -92 119 -127 252 -129 l86 -1 -2 -480 -2 -480 37 -24
c197 -129 519 -279 802 -374 116 -39 290 -90 348 -102 9 -2 72 -15 139 -29
230 -48 443 -69 698 -70 195 0 363 9 484 28 14 3 46 7 71 11 277 40 642 143
910 255 41 17 93 38 115 48 71 29 308 152 393 204 l82 51 -2 488 -3 487 101 4
c92 3 105 6 150 33 30 19 60 49 79 79 l30 49 2 362 3 361 -26 53 c-32 63 -100
117 -160 127 -66 10 -147 11 -166 2 -14 -7 -18 -4 -19 14 -2 86 -28 264 -55
392 -9 39 -17 80 -19 90 -3 10 -9 33 -15 51 -6 18 -12 41 -14 51 -8 37 -84
231 -126 319 -47 98 -149 261 -213 340 -99 123 -290 294 -417 373 -80 50 -302
153 -400 185 -111 37 -314 82 -415 92 -33 3 -76 9 -95 12 -34 5 -417 12 -422
7z m2199 -1966 c-3 -8 -6 -5 -6 6 -1 11 2 17 5 13 3 -3 4 -12 1 -19z"/>
</g>
</svg>
